<svg xmlns="http://www.w3.org/2000/svg" width="880" height="220" viewBox="0 0 880 220" role="img" aria-label="Cache Manager MCP — save tokens, save money">
  <defs>
    <linearGradient id="bg" x1="0" y1="0" x2="1" y2="1">
      <stop offset="0" stop-color="#edf2ee"/>
      <stop offset="1" stop-color="#dde7df"/>
    </linearGradient>
    <linearGradient id="coin" x1="0" y1="0" x2="0" y2="1">
      <stop offset="0" stop-color="#ffe27a"/>
      <stop offset="1" stop-color="#f5b942"/>
    </linearGradient>
    <linearGradient id="pig" x1="0" y1="0" x2="0" y2="1">
      <stop offset="0" stop-color="#ffc1de"/>
      <stop offset="1" stop-color="#ff9bc9"/>
    </linearGradient>
    <filter id="soft" x="-20%" y="-20%" width="140%" height="140%">
      <feDropShadow dx="0" dy="3" stdDeviation="4" flood-color="#5a7766" flood-opacity="0.18"/>
    </filter>
    <style>
      .title { font-family: 'Chalkboard SE','Comic Neue','Trebuchet MS','Segoe UI',sans-serif; font-weight: 700; }
      .tag   { font-family: 'Chalkboard SE','Comic Neue','Trebuchet MS','Segoe UI',sans-serif; font-weight: 600; }
      .coin-t{ font-family: 'Trebuchet MS','Segoe UI',sans-serif; font-weight: 700; }
    </style>
  </defs>

  <!-- card -->
  <rect x="6" y="6" width="868" height="208" rx="28" fill="url(#bg)" stroke="#bccabf" stroke-width="2"/>

  <!-- piggy bank -->
  <g filter="url(#soft)" transform="translate(60 60)">
    <!-- body -->
    <ellipse cx="55" cy="56" rx="62" ry="49" fill="url(#pig)"/>
    <!-- legs -->
    <rect x="22" y="94" width="17" height="20" rx="8" fill="#f58cbe"/>
    <rect x="73" y="94" width="17" height="20" rx="8" fill="#f58cbe"/>
    <!-- ear -->
    <path d="M80 14 q20 -11 24 13 q-17 5 -24 -13 Z" fill="#f58cbe"/>
    <!-- blush cheek -->
    <ellipse cx="70" cy="62" rx="11" ry="8" fill="#ff7fb6" opacity="0.45"/>
    <!-- snout -->
    <ellipse cx="108" cy="58" rx="18" ry="15" fill="#ffd4e8"/>
    <ellipse cx="103" cy="58" rx="3" ry="4" fill="#e889b6"/>
    <ellipse cx="113" cy="58" rx="3" ry="4" fill="#e889b6"/>
    <!-- eye -->
    <circle cx="77" cy="42" r="5.6" fill="#5e3a4c"/>
    <circle cx="79.2" cy="39.8" r="2" fill="#fff"/>
    <circle cx="75.4" cy="44" r="1" fill="#fff" opacity="0.8"/>
    <!-- coin slot -->
    <rect x="40" y="15" width="34" height="7" rx="3.5" fill="#e889b6"/>
    <!-- dropping coin into slot -->
    <g>
      <ellipse cx="57" cy="-6" rx="13" ry="13" fill="url(#coin)" stroke="#e0a528" stroke-width="2"/>
      <text class="coin-t" x="57" y="-1" text-anchor="middle" font-size="15" fill="#9a6a12">$</text>
    </g>
  </g>

  <!-- title block -->
  <text class="title" x="220" y="92" font-size="46" fill="#4f7b66">Cache Manager</text>
  <text class="title" x="221" y="92" font-size="46" fill="#4f7b66" opacity="0.0">Cache Manager</text>
  <g transform="translate(612 64)">
    <rect x="0" y="0" width="86" height="38" rx="12" fill="#5d8a73"/>
    <text class="title" x="43" y="27" text-anchor="middle" font-size="24" fill="#f0f4f0">MCP</text>
  </g>

  <text class="tag" x="222" y="132" font-size="20" fill="#586f63">Keep your context cute and your cache warm.</text>
  <text class="tag" x="222" y="162" font-size="19" fill="#6f8579">Short TTLs &#183; compact handoffs &#183; real token cost &#8594; fewer wasted dollars</text>
</svg>
